<?xml version="1.0" standalone="no"?>
<!DOCTYPE svg PUBLIC "-//W3C//DTD SVG 20010904//EN"
 "http://www.w3.org/TR/2001/REC-SVG-20010904/DTD/svg10.dtd">
<svg version="1.0" xmlns="http://www.w3.org/2000/svg"
 width="250.000000pt" height="250.000000pt" viewBox="0 0 250.000000 250.000000"
 preserveAspectRatio="xMidYMid meet">
<metadata>
Created by potrace 1.11, written by Peter Selinger 2001-2013
</metadata>
<g transform="translate(0.000000,250.000000) scale(0.100000,-0.100000)"
fill="#000000" stroke="none">
<path d="M0 1250 l0 -1250 1250 0 1250 0 0 1250 0 1250 -1250 0 -1250 0 0
-1250z m1290 541 c18 -16 28 -31 22 -35 -6 -3 -5 -23 2 -53 7 -31 9 -111 6
-221 -3 -96 -1 -176 4 -179 4 -3 4 -8 -1 -12 -12 -8 -35 -110 -27 -122 8 -13
-15 -152 -26 -163 -6 -6 -10 -22 -10 -36 0 -14 -9 -32 -20 -40 -11 -8 -20 -24
-20 -36 0 -12 -7 -24 -15 -28 -8 -3 -22 -20 -31 -39 -10 -21 -37 -47 -73 -69
-73 -45 -140 -61 -250 -59 -29 1 -59 -3 -66 -9 -8 -7 -22 -5 -44 6 -21 11 -44
14 -67 10 -25 -5 -36 -3 -40 8 -3 8 -12 12 -21 9 -8 -3 -24 -1 -36 5 -12 5
-38 16 -57 23 -48 17 -60 28 -60 54 0 31 29 37 95 20 135 -36 369 -50 412 -25
10 5 35 16 55 24 22 9 43 26 50 40 6 15 15 26 20 26 4 0 8 6 8 14 0 7 7 19 15
26 9 7 15 20 13 29 -1 9 5 31 15 50 9 19 17 48 17 65 0 17 7 40 15 50 8 10 12
23 9 27 -2 4 2 61 9 126 18 153 12 293 -15 385 -19 66 21 158 69 158 6 0 26
-13 43 -29z m920 14 c81 -4 112 -18 108 -48 -5 -34 -44 -47 -108 -36 -36 6
-66 5 -88 -2 -19 -6 -45 -9 -60 -6 -14 3 -37 1 -51 -5 -15 -5 -59 -11 -99 -14
-144 -8 -202 -45 -181 -116 5 -21 5 -36 -1 -42 -6 -6 -10 -16 -10 -23 0 -10
40 -12 203 -7 111 3 246 9 300 13 94 6 97 6 97 -14 0 -43 -21 -55 -125 -71
-104 -16 -160 -21 -285 -27 -41 -2 -103 -7 -138 -11 l-63 -8 6 -62 c10 -89 22
-121 61 -156 45 -39 116 -44 184 -13 35 16 47 21 129 65 25 13 51 34 59 48 14
23 70 60 93 60 5 0 14 -12 19 -26 8 -21 6 -31 -10 -52 -36 -46 -143 -133 -193
-157 -26 -12 -55 -29 -65 -37 -9 -9 -24 -16 -32 -16 -8 -1 -37 -4 -65 -7 -83
-10 -93 -8 -151 20 -41 20 -64 40 -85 73 -37 59 -60 129 -64 197 -1 30 -10 66
-18 79 -17 25 -13 60 8 86 7 8 15 40 18 70 2 30 8 63 11 72 6 13 1 17 -20 20
-69 8 -51 82 26 108 25 8 47 18 50 22 3 4 38 7 78 6 43 0 78 5 87 12 8 6 27 9
42 6 15 -3 73 -2 128 3 55 4 108 6 118 4 10 -3 49 -6 87 -8z"/>
</g>
</svg>
